<?xml version="1.0" encoding="utf-8"?>
<!-- Generator: Adobe Illustrator 20.1.0, SVG Export Plug-In . SVG Version: 6.00 Build 0)  -->
<!DOCTYPE svg PUBLIC "-//W3C//DTD SVG 1.1//EN" "http://www.w3.org/Graphics/SVG/1.1/DTD/svg11.dtd">
<svg version="1.1" id="Layer_1" xmlns="http://www.w3.org/2000/svg" xmlns:xlink="http://www.w3.org/1999/xlink" x="0px" y="0px"
	 viewBox="0 0 383 198.1" style="enable-background:new 0 0 383 198.1;" xml:space="preserve">
<style type="text/css">
	.st0{fill:#105AA7;}
	.st1{fill:#316BB0;}
	.st2{fill:#4777B3;}
	.st3{fill:#6680AC;}
	.st4{fill:#959BA6;}
	.st5{fill:#8E98AD;}
	.st6{fill:#838FAC;}
	.st7{fill:#939599;}
	.st8{fill:#595A5C;}
</style>
<g>
	<g>
		<path class="st0" d="M61.2,86.3c-0.3,1.9,7.9,3.7,18.3,3.9c10.4,0.2,19-1.1,19.3-3c0.3-1.9-7.9-3.7-18.3-3.9
			C70.1,83,61.5,84.4,61.2,86.3"/>
		<path class="st1" d="M105.7,78.8c-0.4,3,7.7,5.6,18.1,5.8c10.4,0.3,19.1-2,19.6-4.9c0.4-3-7.7-5.6-18.1-5.8
			C114.9,73.6,106.1,75.8,105.7,78.8"/>
		<path class="st2" d="M138.7,64.3c-0.5,3.6,7.5,6.6,17.9,6.9c10.4,0.2,19.2-2.4,19.7-6c0.5-3.5-7.5-6.6-17.9-6.9
			C148,58.1,139.2,60.7,138.7,64.3"/>
		<path class="st3" d="M156.2,47.9c-0.5,3.6,7.5,6.6,17.9,6.9c10.4,0.2,19.2-2.4,19.7-6c0.5-3.5-7.5-6.6-17.9-6.9
			C165.5,41.7,156.7,44.4,156.2,47.9"/>
		<path class="st4" d="M290.2,10.2c0.2-1.7-8-3.2-18.4-3.4c-10.4-0.2-19,0.9-19.2,2.5c-0.2,1.7,8,3.2,18.4,3.4
			C281.4,13,290,11.9,290.2,10.2"/>
		<path class="st5" d="M245.7,17.3c0.4-3-7.7-5.6-18.1-5.8c-10.4-0.2-19.1,2-19.6,4.9c-0.4,3,7.7,5.6,18.1,5.8
			C236.5,22.4,245.3,20.2,245.7,17.3"/>
		<path class="st6" d="M212.7,31.8c0.5-3.6-7.5-6.6-17.9-6.9c-10.4-0.2-19.2,2.4-19.7,6c-0.5,3.5,7.5,6.6,17.9,6.9
			C203.4,38,212.2,35.3,212.7,31.8"/>
		<path class="st7" d="M334,14.7c0.2-1.7-8-3.2-18.4-3.4c-10.4-0.2-19,0.9-19.2,2.5c-0.2,1.7,8,3.2,18.4,3.4
			C325.1,17.5,333.7,16.3,334,14.7"/>
		<polygon class="st0" points="20.2,115.6 20.2,159.5 7.9,159.5 7.9,115.6 -1.2,115.6 -1.2,107.3 29.3,107.3 29.3,115.6 		"/>
		<path class="st0" d="M42,143.2c0.8,6,3.9,9,9.9,9c4.8,0,8.4-1.1,10.6-2.2l2.7,7.4c-3.2,1.6-7.7,3-14.6,3
			c-12.5,0-19.7-8.3-19.7-21.3c0-12.8,6.7-21.1,18.4-21.1c11.8,0,17.8,8,17.3,21.9L42,143.2z M48.8,124.8c-4.9,0-7.9,4.2-7.5,12.6
			l14.3-2.1C55.5,128,53.1,124.8,48.8,124.8"/>
		<path class="st0" d="M89.5,160.3c-9.7,0-16.9-7.6-16.9-21.3c0-13.8,7.7-21.1,16.8-21.1c5,0,8.2,1.4,10,3l-2.4,6.5
			c-1.1-0.8-2.5-1.6-4.9-1.6c-5.2,0-7.6,4.7-7.6,13.1c0,8.3,2.8,13.1,7.5,13.1c2.2,0,3.7-0.6,4.9-1.7l2.5,7.1
			C97.7,159,94.6,160.3,89.5,160.3"/>
		<path class="st0" d="M128.8,159.5v-28.5c0-3.2-1.4-5.8-6.1-5.8c-1.9,0-3.4,0.3-5,1.1v33.1h-11.8V99.9h11.8v20
			c2.7-1.2,5.6-1.9,8.8-1.9c10.2,0,14.1,5.9,14.1,12.7v28.7H128.8z"/>
		<path class="st0" d="M172.6,159.5v-28.6c0-2.9-1.3-5.7-6.1-5.7c-2.4,0-3.6,0.4-5,0.8v33.5h-11.8v-38.6c4.1-1.8,9.9-3,17.2-3
			c13,0,17.6,5.5,17.6,13v28.7H172.6z"/>
		<path class="st0" d="M210,160.3c-11.8,0-18.1-9-18.1-21.2c0-12.2,6.2-21.2,18-21.2c11.9,0,18.1,9,18.1,21.2
			C228,151.2,221.8,160.3,210,160.3 M210,125.2c-5.2,0-6.3,6.4-6.3,13.7c0,7.4,1.1,13.4,6.3,13.4c5.2,0,6.3-6,6.3-13.4
			C216.3,131.6,215.2,125.2,210,125.2"/>
		<path class="st0" d="M253.3,160c-2.5,0-4.7-0.3-5.9-0.7v16.5h-11.8v-55c3.5-1.7,8.3-3,15.6-3c12.2,0,20.1,7.2,20.1,20.9
			C271.3,151.9,263.9,160,253.3,160 M251,124.8c-1.6,0-2.7,0.2-3.6,0.6v27.1c0.8,0.3,1.8,0.5,3.1,0.5c6.3,0,9.1-4.9,9.1-14.1
			C259.6,129.8,257.3,124.8,251,124.8"/>
		<g>
			<path class="st7" d="M312.4,91.1c-24.1,0-59.5-5.6-103.5-20.5l7.6-6.8c43.3,14.7,72.9,19.3,95.9,19.3c29,0,43.9-7.4,49.9-11.6
				c1.9-1.3,3-2.4,3.1-2.6l0.1-0.1l0.1-0.1c0,0,0,0,0,0c0,0,0,0,0,0c0,0,0.1-0.1,0.1-0.2c0.1-0.2,0.3-0.4,0.6-0.8
				c0.5-0.7,1.2-1.7,1.9-3c1.4-2.5,2.7-6.1,2.7-9.9c0-4.1-0.5-8.7-5.2-13.8c-4.7-5.1-15.5-15.5-29.4-20.6l4.3-1.1
				c14.7,5.4,24.2,11.5,30.2,17.9c5.9,6.4,8.2,11.7,8.1,17.6c-0.1,10.3-5.9,17.4-7.1,18.9c-0.4,0.6-0.9,1-1.6,1.7
				c-0.7,0.7-1.7,1.5-2.9,2.3c-2.4,1.7-5.9,3.8-10.6,5.7C347.2,87.5,332.9,91.1,312.4,91.1L312.4,91.1z"/>
			<path class="st0" d="M11.5,57.9C5,50.9,1.4,42.9,1.4,35c0-9.5,5.3-18.5,15.2-24.6c9.9-6.2,24.2-10,43.3-10.2c1.1,0,2.2,0,3.2,0
				c67.6,0,96.4,34.9,96.9,35.4v0l-3.3,0.8c0,0,0,0,0,0c0,0-0.1-0.1-0.2-0.2c-0.2-0.2-0.5-0.5-0.9-0.9c-0.9-0.8-2.2-1.9-4-3.2
				c-3.6-2.7-9.9-6.3-17.5-10C118.9,14.6,95.7,8,63.1,8c-1,0-2.1,0-3.1,0c-18.1,0.3-31.1,3.9-39.2,9C12.7,22.2,9.3,28.4,9.3,35
				c0,5.5,2.5,11.6,8,17.6c5.4,5.9,17.1,11.9,28.2,16.1l-6.1,6.9C27.4,71,18,64.9,11.5,57.9"/>
		</g>
		<path class="st0" d="M294.8,160.3c-11.8,0-17.9-4.4-17.9-12.9c0-10.6,10.6-13.7,22.8-14.8v-1.9c0-4.2-2.9-5.5-7.2-5.5
			c-3.9,0-8,1.3-10.6,2.5l-2.6-6.8c2.9-1.2,8.2-3.1,15.4-3.1c9.3,0,16.1,3.9,16.1,15v24.4C307.4,159.1,301.9,160.3,294.8,160.3
			 M299.8,138c-7.1,0.7-11.8,2.4-11.8,8.9c0,4.8,2.7,6.8,7.4,6.8c1.7,0,3.3-0.3,4.3-0.8V138z"/>
		<path class="st0" d="M339.5,126.3c-2.9-1.2-5.9-1.1-7.9-0.2v33.4h-11.8v-38.6c4.6-2.2,10.9-3.4,21.9-2.9L339.5,126.3z"/>
		<polygon class="st0" points="371,159.5 359.2,138.9 359,138.9 359,159.5 347.3,159.5 347.3,99.9 359,99.9 359,136.7 359.2,136.7 
			370.7,118.6 382.5,118.6 369.7,137 384.2,159.5 		"/>
		<polygon class="st7" points="193.1,57.7 203.4,74.3 230.5,62.8 		"/>
	</g>
	<path class="st8" d="M378.5,188.7c0,3.6-0.7,7.6-4.1,7.6c-3.4,0-4.1-3.9-4.1-7.6c0-3.6,0.8-7.6,4.1-7.6
		C377.7,181.1,378.5,185.1,378.5,188.7 M380.9,188.8c0-5.1-1.8-9.3-6.5-9.3c-4.7,0-6.5,4.2-6.5,9.3c0,5.1,1.8,9.3,6.5,9.3
		C379.1,198,380.9,193.9,380.9,188.8 M360.7,190.9h-5.4l2.1-6.8c0.4-1.4,0.5-2.1,0.5-2.1h0.1c0,0,0.1,0.7,0.5,2.1L360.7,190.9z
		 M365.2,197.8l-6.1-18H357l-6.1,18h2.2l1.8-5.4h6.2l1.7,5.4H365.2z M361.8,176.7l-0.7-1.1c-0.2,0.5-0.5,1-1.4,1.2
		c-1.2,0.2-1.9-1.2-3.4-1c-1.1,0.1-1.5,0.7-1.9,1.4l0.7,1c0.2-0.4,0.5-1.1,1.4-1.2c1.3-0.1,2.1,1.2,3.6,1
		C361.1,177.9,361.5,177.4,361.8,176.7 M348.2,192.7c0-1.6-0.5-3.7-4.1-5.1c-1.6-0.7-3-1.4-3-3.3c0-1.9,1.1-3.2,3-3.2
		c1.2,0,2.2,0.4,2.8,0.8l0.6-1.5c-0.8-0.5-2-1-3.7-1c-3.1,0-5.1,2.3-5.1,5c0,1.8,0.8,3.6,3.8,4.8c2.2,0.9,3.1,1.9,3.1,3.5
		c0,2-1.3,3.4-3.4,3.4c-1.4,0-2.5-0.4-3.1-0.8l-0.6,1.7c0.9,0.6,2.1,1,4.2,1C346,198,348.2,195.8,348.2,192.7 M334.6,179.8h-2.4v18
		h2.4V179.8z M328.8,179.8h-2.3l-3.4,12.6c-0.3,1.1-0.5,2.4-0.5,2.4h-0.1c0,0-0.2-1.2-0.5-2.4l-3.3-12.6h-2.6l5.3,18h2.1
		L328.8,179.8z M305.6,190.9h-5.4l2.1-6.8c0.4-1.4,0.5-2.2,0.5-2.2h0.1c0,0,0.1,0.8,0.5,2.2L305.6,190.9z M310.2,197.8l-6.1-18H302
		l-6.1,18h2.2l1.8-5.4h6.2l1.7,5.4H310.2z M294.9,179.8h-2.3l-3.4,12.6c-0.3,1.1-0.5,2.4-0.5,2.4h-0.1c0,0-0.2-1.2-0.5-2.4
		l-3.3-12.6h-2.6l5.3,18h2.1L294.9,179.8z M277.3,188.7c0,3.6-0.7,7.6-4.1,7.6s-4.1-3.9-4.1-7.6c0-3.6,0.8-7.6,4.1-7.6
		C276.5,181.1,277.3,185.1,277.3,188.7 M279.8,188.8c0-5.1-1.8-9.3-6.5-9.3c-4.7,0-6.5,4.2-6.5,9.3c0,5.1,1.8,9.3,6.5,9.3
		C277.9,198,279.8,193.9,279.8,188.8 M262.6,197.8v-18h-2v12.5c0,1.1,0.1,2,0.1,2h-0.1c0,0-0.4-0.8-1-1.9l-7.3-12.6h-2.5v18h2v-13.1
		c0-1.1-0.1-2.2-0.1-2.2h0.1c0,0,0.5,1,1.2,2.2l7.7,13.1H262.6z M237.8,190.9h-5.4l2.1-6.8c0.4-1.4,0.5-2.2,0.5-2.2h0.1
		c0,0,0.1,0.8,0.5,2.2L237.8,190.9z M242.4,197.8l-6.1-18h-2.1l-6.1,18h2.2l1.8-5.4h6.2l1.7,5.4H242.4z M225.4,197.8l-2.1-18h-2.5
		l-3.7,13c-0.3,1.2-0.5,2-0.5,2h-0.1c0,0-0.1-0.8-0.5-2l-3.6-13h-2.5l-2.1,18h2.1c0-0.3,1.4-13.5,1.4-13.5c0.1-1.1,0.1-2.1,0.1-2.1
		h0.1c0,0,0.2,1,0.5,2.1c0,0,3.7,13.2,3.8,13.5h1.6c0.1-0.3,3.8-13.5,3.8-13.5c0.3-1.1,0.5-2.1,0.5-2.1h0.1c0,0,0,1,0.1,2.1
		c0,0,1.4,13.2,1.4,13.5H225.4z M203.5,192.6v-12.9h-2.2v12.8c0,2.3-1.5,3.6-3.3,3.6c-1.8,0-3.3-1.3-3.3-3.6v-12.8h-2.4v12.9
		c0,3.1,2.2,5.4,5.6,5.4C201.4,198,203.5,195.7,203.5,192.6 M181.8,192.9c0,2.6-1.8,3.6-4.2,3.6c-1.1,0-1.9-0.1-2.5-0.4v-7.2h1.2
		C180.2,188.9,181.8,190.1,181.8,192.9 M181.2,184.2c0,2.4-1.3,3.5-5,3.5h-1.2v-6.4c0.7-0.3,1.4-0.4,2.4-0.4
		C179.9,180.9,181.2,182,181.2,184.2 M184.2,192.9c0-2.7-2.5-4.3-4.2-4.7v-0.1c1.6-0.3,3.5-1.6,3.5-4.2c0-2.6-2.1-4.5-6.1-4.5
		c-2,0-3.7,0.4-4.7,1V197c1.1,0.6,2.9,1,4.9,1C181.5,198,184.2,196.5,184.2,192.9 M166.2,188.7c0,3.6-0.7,7.6-4.1,7.6
		c-3.4,0-4.1-3.9-4.1-7.6c0-3.6,0.8-7.6,4.1-7.6C165.4,181.1,166.2,185.1,166.2,188.7 M168.6,188.8c0-5.1-1.8-9.3-6.5-9.3
		c-4.7,0-6.5,4.2-6.5,9.3c0,5.1,1.8,9.3,6.5,9.3C166.8,198,168.6,193.9,168.6,188.8 M152,192.7c0-1.6-0.5-3.7-4.1-5.1
		c-1.6-0.7-3-1.4-3-3.3c0-1.9,1.1-3.2,3-3.2c1.2,0,2.2,0.4,2.8,0.8l0.6-1.5c-0.8-0.5-2-1-3.7-1c-3.1,0-5.1,2.3-5.1,5
		c0,1.8,0.8,3.6,3.8,4.8c2.3,0.9,3.1,1.9,3.1,3.5c0,2-1.3,3.4-3.4,3.4c-1.4,0-2.5-0.4-3.1-0.8l-0.6,1.7c0.9,0.6,2.1,1,4.2,1
		C149.7,198,152,195.8,152,192.7 M131.4,190.9H126l2.1-6.8c0.4-1.4,0.5-2.2,0.5-2.2h0.1c0,0,0.1,0.8,0.5,2.2L131.4,190.9z
		 M136,197.8l-6.1-18h-2.1l-6.1,18h2.2l1.8-5.4h6.2l1.7,5.4H136z M118.3,179.8h-2.4v18h2.4V179.8z M111.1,197v-9.4h-5.4v1.5h3.1v6.7
		c-0.4,0.2-1,0.4-2.2,0.4c-2.8,0-5-2.6-5-7.5c0-5.2,2-7.6,5.3-7.6c1.6,0,2.6,0.4,3.2,0.7l0.7-1.5c-0.9-0.5-2.2-0.9-4.2-0.9
		c-4.1,0-7.6,3.1-7.6,9.1c0,6.4,3.4,9.4,7.6,9.4C108.8,198,110,197.7,111.1,197 M93,188.7c0,3.6-0.7,7.6-4.1,7.6
		c-3.4,0-4.1-3.9-4.1-7.6c0-3.6,0.8-7.6,4.1-7.6C92.2,181.1,93,185.1,93,188.7 M95.4,188.8c0-5.1-1.8-9.3-6.5-9.3
		c-4.7,0-6.5,4.2-6.5,9.3c0,5.1,1.8,9.3,6.5,9.3C93.6,198,95.4,193.9,95.4,188.8 M80.2,197.8v-1.6h-5.4v-16.4h-2.4v18H80.2z
		 M65.6,188.7c0,3.6-0.7,7.6-4.1,7.6c-3.4,0-4.1-3.9-4.1-7.6c0-3.6,0.8-7.6,4.1-7.6C64.9,181.1,65.6,185.1,65.6,188.7 M68.1,188.8
		c0-5.1-1.8-9.3-6.5-9.3c-4.7,0-6.5,4.2-6.5,9.3c0,5.1,1.8,9.3,6.5,9.3C66.2,198,68.1,193.9,68.1,188.8 M50.9,197.8v-18h-2v12.5
		c0,1.1,0.1,2,0.1,2h-0.1c0,0-0.4-0.8-1-1.9l-7.3-12.6H38v18h2v-13.1c0-1.1-0.1-2.2-0.1-2.2H40c0,0,0.5,1,1.2,2.2l7.7,13.1H50.9z
		 M34.4,197l-0.6-1.5c-0.7,0.4-1.4,0.7-2.5,0.7c-3.3,0-4.6-3.6-4.6-7.5c0-3.8,1.2-7.6,4.7-7.6c1.1,0,2,0.4,2.5,0.7l0.6-1.4
		c-0.8-0.6-1.9-1-3.5-1c-4.3,0-6.7,4.3-6.7,9.3c0,5.1,2.4,9.3,6.7,9.3C32.3,198,33.6,197.6,34.4,197 M21,197.8v-1.6h-5.9v-6.9h5.3
		v-1.6h-5.3v-6.3H21v-1.6h-8.3v18H21z M9.1,181.4v-1.6h-9.6v1.6h3.6v16.4h2.4v-16.4H9.1z"/>
</g>
</svg>
