<?xml version="1.0" encoding="utf-8"?>
<!-- Generator: Adobe Illustrator 20.1.0, SVG Export Plug-In . SVG Version: 6.00 Build 0)  -->
<!DOCTYPE svg PUBLIC "-//W3C//DTD SVG 1.1//EN" "http://www.w3.org/Graphics/SVG/1.1/DTD/svg11.dtd">
<svg version="1.1" id="Layer_1" xmlns="http://www.w3.org/2000/svg" xmlns:xlink="http://www.w3.org/1999/xlink" x="0px" y="0px"
	 viewBox="0 0 383 198.1" style="enable-background:new 0 0 383 198.1;" xml:space="preserve">
<style type="text/css">
	.st0{fill:#FFFFFF;}
</style>
<g>
	<path class="st0" d="M379,188.8c0,3.6-0.7,7.6-4.1,7.6c-3.4,0-4.1-3.9-4.1-7.6c0-3.6,0.8-7.6,4.1-7.6
		C378.2,181.2,379,185.1,379,188.8 M381.4,188.9c0-5.1-1.8-9.3-6.5-9.3c-4.7,0-6.5,4.2-6.5,9.3c0,5.1,1.8,9.3,6.5,9.3
		C379.6,198.1,381.4,194,381.4,188.9 M361.2,191h-5.4l2.1-6.8c0.4-1.4,0.5-2.1,0.5-2.1h0.1c0,0,0.1,0.7,0.5,2.1L361.2,191z
		 M365.7,197.9l-6.1-18h-2.1l-6.1,18h2.2l1.8-5.4h6.2l1.7,5.4H365.7z M362.3,176.8l-0.7-1.1c-0.2,0.5-0.5,1-1.4,1.2
		c-1.2,0.2-1.9-1.2-3.4-1c-1.1,0.1-1.5,0.7-1.9,1.4l0.7,1c0.2-0.4,0.5-1.1,1.4-1.2c1.3-0.1,2.1,1.2,3.6,1
		C361.6,178,362,177.5,362.3,176.8 M348.7,192.8c0-1.6-0.5-3.7-4.1-5.1c-1.6-0.7-3-1.4-3-3.3c0-1.9,1.1-3.2,3-3.2
		c1.2,0,2.2,0.4,2.8,0.8l0.6-1.5c-0.8-0.5-2-1-3.7-1c-3.1,0-5.1,2.3-5.1,5c0,1.8,0.8,3.6,3.8,4.8c2.2,0.9,3.1,1.9,3.1,3.5
		c0,2-1.3,3.4-3.4,3.4c-1.4,0-2.5-0.4-3.1-0.8l-0.6,1.7c0.9,0.6,2.1,1,4.2,1C346.5,198.1,348.7,195.9,348.7,192.8 M335.1,179.9h-2.4
		v18h2.4V179.9z M329.3,179.9H327l-3.4,12.6c-0.3,1.1-0.5,2.4-0.5,2.4H323c0,0-0.2-1.2-0.5-2.4l-3.3-12.6h-2.6l5.3,18h2.1
		L329.3,179.9z M306.1,191h-5.4l2.1-6.8c0.4-1.4,0.5-2.2,0.5-2.2h0.1c0,0,0.1,0.8,0.5,2.2L306.1,191z M310.7,197.9l-6.1-18h-2.1
		l-6.1,18h2.2l1.8-5.4h6.2l1.7,5.4H310.7z M295.5,179.9h-2.3l-3.4,12.6c-0.3,1.1-0.5,2.4-0.5,2.4h-0.1c0,0-0.2-1.2-0.5-2.4
		l-3.3-12.6h-2.6l5.3,18h2.1L295.5,179.9z M277.8,188.8c0,3.6-0.7,7.6-4.1,7.6c-3.4,0-4.1-3.9-4.1-7.6c0-3.6,0.8-7.6,4.1-7.6
		C277.1,181.2,277.8,185.1,277.8,188.8 M280.3,188.9c0-5.1-1.8-9.3-6.5-9.3c-4.7,0-6.5,4.2-6.5,9.3c0,5.1,1.8,9.3,6.5,9.3
		C278.4,198.1,280.3,194,280.3,188.9 M263.1,197.9v-18h-2v12.5c0,1.1,0.1,2,0.1,2h-0.1c0,0-0.4-0.8-1-1.9l-7.3-12.6h-2.5v18h2v-13.1
		c0-1.1-0.1-2.2-0.1-2.2h0.1c0,0,0.5,1,1.2,2.2l7.7,13.1H263.1z M238.3,191h-5.4l2.1-6.8c0.4-1.4,0.5-2.2,0.5-2.2h0.1
		c0,0,0.1,0.8,0.5,2.2L238.3,191z M242.9,197.9l-6.1-18h-2.1l-6.1,18h2.2l1.8-5.4h6.2l1.7,5.4H242.9z M225.9,197.9l-2.1-18h-2.5
		l-3.7,13c-0.3,1.2-0.5,2-0.5,2H217c0,0-0.1-0.8-0.5-2l-3.6-13h-2.5l-2.1,18h2.1c0-0.3,1.4-13.5,1.4-13.5c0.1-1.1,0.1-2.1,0.1-2.1
		h0.1c0,0,0.2,1,0.5,2.1c0,0,3.7,13.2,3.8,13.5h1.6c0.1-0.3,3.8-13.5,3.8-13.5c0.3-1.1,0.5-2.1,0.5-2.1h0.1c0,0,0,1,0.1,2.1
		c0,0,1.4,13.2,1.4,13.5H225.9z M204,192.7v-12.9h-2.2v12.8c0,2.3-1.5,3.6-3.3,3.6c-1.8,0-3.3-1.3-3.3-3.6v-12.8h-2.4v12.9
		c0,3.1,2.2,5.4,5.6,5.4C201.9,198.1,204,195.8,204,192.7 M182.3,193c0,2.6-1.8,3.6-4.2,3.6c-1.1,0-1.9-0.1-2.5-0.4V189h1.2
		C180.7,189,182.3,190.2,182.3,193 M181.8,184.3c0,2.4-1.3,3.5-5,3.5h-1.2v-6.4c0.7-0.3,1.4-0.4,2.4-0.4
		C180.4,181,181.8,182.1,181.8,184.3 M184.8,193c0-2.7-2.5-4.3-4.2-4.7v-0.1c1.6-0.3,3.5-1.6,3.5-4.2c0-2.6-2.1-4.5-6.1-4.5
		c-2,0-3.7,0.4-4.7,1v16.5c1.1,0.6,2.9,1,4.9,1C182,198.1,184.8,196.6,184.8,193 M166.7,188.8c0,3.6-0.7,7.6-4.1,7.6
		c-3.4,0-4.1-3.9-4.1-7.6c0-3.6,0.8-7.6,4.1-7.6C165.9,181.2,166.7,185.1,166.7,188.8 M169.1,188.9c0-5.1-1.8-9.3-6.5-9.3
		c-4.7,0-6.5,4.2-6.5,9.3c0,5.1,1.8,9.3,6.5,9.3C167.3,198.1,169.1,194,169.1,188.9 M152.5,192.8c0-1.6-0.5-3.7-4.1-5.1
		c-1.6-0.7-3-1.4-3-3.3c0-1.9,1.1-3.2,3-3.2c1.2,0,2.2,0.4,2.8,0.8l0.6-1.5c-0.8-0.5-2-1-3.7-1c-3.1,0-5.1,2.3-5.1,5
		c0,1.8,0.8,3.6,3.8,4.8c2.3,0.9,3.1,1.9,3.1,3.5c0,2-1.3,3.4-3.4,3.4c-1.4,0-2.5-0.4-3.1-0.8l-0.6,1.7c0.9,0.6,2.1,1,4.2,1
		C150.3,198.1,152.5,195.9,152.5,192.8 M131.9,191h-5.4l2.1-6.8c0.4-1.4,0.5-2.2,0.5-2.2h0.1c0,0,0.1,0.8,0.5,2.2L131.9,191z
		 M136.5,197.9l-6.1-18h-2.1l-6.1,18h2.2l1.8-5.4h6.2l1.7,5.4H136.5z M118.8,179.9h-2.4v18h2.4V179.9z M111.7,197.1v-9.4h-5.4v1.5
		h3.1v6.7c-0.4,0.2-1,0.4-2.2,0.4c-2.8,0-5-2.6-5-7.5c0-5.2,2-7.6,5.3-7.6c1.6,0,2.6,0.4,3.2,0.7l0.7-1.5c-0.9-0.5-2.2-0.9-4.2-0.9
		c-4.1,0-7.6,3.1-7.6,9.1c0,6.4,3.4,9.4,7.6,9.4C109.4,198.1,110.6,197.7,111.7,197.1 M93.5,188.8c0,3.6-0.7,7.6-4.1,7.6
		c-3.4,0-4.1-3.9-4.1-7.6c0-3.6,0.8-7.6,4.1-7.6C92.7,181.2,93.5,185.1,93.5,188.8 M95.9,188.9c0-5.1-1.8-9.3-6.5-9.3
		c-4.7,0-6.5,4.2-6.5,9.3c0,5.1,1.8,9.3,6.5,9.3C94.1,198.1,95.9,194,95.9,188.9 M80.7,197.9v-1.6h-5.4v-16.4h-2.4v18H80.7z
		 M66.1,188.8c0,3.6-0.7,7.6-4.1,7.6c-3.4,0-4.1-3.9-4.1-7.6c0-3.6,0.8-7.6,4.1-7.6C65.4,181.2,66.1,185.1,66.1,188.8 M68.6,188.9
		c0-5.1-1.8-9.3-6.5-9.3c-4.7,0-6.5,4.2-6.5,9.3c0,5.1,1.8,9.3,6.5,9.3C66.7,198.1,68.6,194,68.6,188.9 M51.4,197.9v-18h-2v12.5
		c0,1.1,0.1,2,0.1,2h-0.1c0,0-0.4-0.8-1-1.9L41,179.9h-2.5v18h2v-13.1c0-1.1-0.1-2.2-0.1-2.2h0.1c0,0,0.5,1,1.2,2.2l7.7,13.1H51.4z
		 M34.9,197.1l-0.6-1.5c-0.7,0.4-1.4,0.7-2.5,0.7c-3.3,0-4.6-3.6-4.6-7.5c0-3.8,1.2-7.6,4.7-7.6c1.1,0,2,0.4,2.5,0.7l0.6-1.4
		c-0.8-0.6-1.9-1-3.5-1c-4.3,0-6.7,4.3-6.7,9.3c0,5.1,2.4,9.3,6.7,9.3C32.8,198.1,34.1,197.7,34.9,197.1 M21.5,197.9v-1.6h-5.9v-6.9
		h5.3v-1.6h-5.3v-6.3h5.9v-1.6h-8.3v18H21.5z M9.6,181.5v-1.6H0v1.6h3.6v16.4H6v-16.4H9.6z"/>
	<g>
		<path class="st0" d="M62,86.2c-0.3,1.9,7.9,3.7,18.2,3.9c10.3,0.2,18.9-1.1,19.2-3c0.3-1.9-7.9-3.7-18.2-3.9S62.3,84.3,62,86.2"/>
		<path class="st0" d="M106.3,78.7c-0.4,3,7.6,5.6,17.9,5.8c10.3,0.3,19-2,19.4-4.9c0.4-3-7.6-5.6-17.9-5.8
			C115.4,73.5,106.7,75.7,106.3,78.7"/>
		<path class="st0" d="M139.1,64.2c-0.5,3.6,7.5,6.6,17.8,6.9c10.3,0.2,19.1-2.4,19.6-6c0.5-3.5-7.5-6.6-17.8-6.9
			C148.3,58,139.5,60.7,139.1,64.2"/>
		<path class="st0" d="M156.4,47.8c-0.5,3.6,7.5,6.6,17.8,6.9c10.3,0.2,19.1-2.4,19.6-6c0.5-3.5-7.5-6.6-17.8-6.9
			C165.7,41.6,156.9,44.3,156.4,47.8"/>
		<path class="st0" d="M289.6,10.1c0.2-1.7-8-3.2-18.3-3.4c-10.3-0.2-18.9,0.9-19.1,2.5c-0.2,1.7,8,3.2,18.3,3.4
			C280.8,12.9,289.3,11.8,289.6,10.1"/>
		<path class="st0" d="M245.4,17.2c0.4-3-7.6-5.6-17.9-5.8c-10.3-0.2-19,2-19.4,4.9c-0.4,3,7.6,5.6,17.9,5.8
			C236.3,22.4,245,20.1,245.4,17.2"/>
		<path class="st0" d="M212.6,31.7c0.5-3.6-7.5-6.6-17.8-6.9c-10.3-0.2-19.1,2.4-19.6,6c-0.5,3.5,7.5,6.6,17.8,6.9
			C203.3,37.9,212.1,35.2,212.6,31.7"/>
		<path class="st0" d="M333,14.6c0.2-1.7-8-3.2-18.3-3.4c-10.3-0.2-18.9,0.9-19.1,2.5c-0.2,1.7,8,3.2,18.3,3.4
			C324.3,17.4,332.8,16.2,333,14.6"/>
		<polygon class="st0" points="21.3,115.5 21.3,159.4 9,159.4 9,115.5 0,115.5 0,107.2 30.3,107.2 30.3,115.5 		"/>
		<path class="st0" d="M43,143.1c0.8,6,3.8,9,9.8,9c4.8,0,8.4-1.1,10.6-2.2l2.6,7.4c-3.2,1.6-7.7,3-14.6,3
			c-12.4,0-19.6-8.3-19.6-21.3c0-12.8,6.6-21.1,18.3-21.1c11.8,0,17.7,8,17.2,21.9L43,143.1z M49.7,124.7c-4.8,0-7.8,4.2-7.5,12.6
			l14.2-2.1C56.4,127.9,54,124.7,49.7,124.7"/>
		<path class="st0" d="M90.1,160.2c-9.7,0-16.7-7.6-16.7-21.3c0-13.8,7.6-21.1,16.7-21.1c5,0,8.1,1.4,10,3l-2.4,6.5
			c-1.1-0.8-2.5-1.6-4.8-1.6c-5.1,0-7.5,4.7-7.5,13.1c0,8.3,2.8,13.1,7.5,13.1c2.2,0,3.7-0.6,4.9-1.7l2.5,7.1
			C98.3,158.9,95.2,160.2,90.1,160.2"/>
		<path class="st0" d="M129.3,159.4V131c0-3.2-1.4-5.8-6-5.8c-1.9,0-3.4,0.3-5,1.1v33.1h-11.8V99.8h11.8v20c2.7-1.2,5.6-1.9,8.8-1.9
			c10.2,0,14,5.9,14,12.8v28.7H129.3z"/>
		<path class="st0" d="M172.7,159.4v-28.6c0-2.9-1.3-5.7-6-5.7c-2.3,0-3.6,0.4-5,0.8v33.5h-11.8v-38.6c4.1-1.8,9.8-3,17-3
			c12.9,0,17.5,5.5,17.5,13v28.7H172.7z"/>
		<path class="st0" d="M209.9,160.2c-11.8,0-17.9-9-17.9-21.2c0-12.2,6.2-21.2,17.9-21.2c11.8,0,18,9,18,21.2
			C227.8,151.2,221.6,160.2,209.9,160.2 M209.9,125.1c-5.2,0-6.3,6.4-6.3,13.7c0,7.4,1.1,13.4,6.3,13.4c5.2,0,6.3-6,6.3-13.4
			C216.1,131.5,215.1,125.1,209.9,125.1"/>
		<path class="st0" d="M252.9,160c-2.5,0-4.7-0.3-5.9-0.7v16.5h-11.8v-55c3.5-1.7,8.3-3,15.5-3c12.1,0,20,7.2,20,21
			C270.8,151.8,263.5,160,252.9,160 M250.7,124.7c-1.6,0-2.6,0.2-3.6,0.6v27.1c0.8,0.3,1.8,0.5,3.1,0.5c6.3,0,9-4.9,9-14.1
			C259.2,129.7,256.9,124.7,250.7,124.7"/>
		<path class="st0" d="M294.2,160.2c-11.8,0-17.8-4.4-17.8-12.9c0-10.6,10.5-13.7,22.7-14.8v-1.9c0-4.3-2.9-5.5-7.2-5.5
			c-3.9,0-7.9,1.3-10.6,2.5l-2.6-6.8c2.9-1.2,8.1-3.1,15.3-3.1c9.2,0,16,3.9,16,15v24.4C306.7,159,301.2,160.2,294.2,160.2
			 M299.1,137.9c-7.1,0.7-11.7,2.4-11.7,8.9c0,4.8,2.7,6.8,7.4,6.8c1.7,0,3.2-0.3,4.3-0.8V137.9z"/>
		<path class="st0" d="M338.6,126.3c-2.9-1.2-5.9-1.1-7.8-0.2v33.4H319v-38.6c4.5-2.2,10.9-3.4,21.8-2.9L338.6,126.3z"/>
		<polygon class="st0" points="369.8,159.4 358.1,138.8 358,138.8 358,159.4 346.3,159.4 346.3,99.8 358,99.8 358,136.6 
			358.1,136.6 369.5,118.5 381.3,118.5 368.5,136.9 383,159.4 		"/>
		<polygon class="st0" points="193.1,57.6 203.3,74.2 230.3,62.7 		"/>
		<path class="st0" d="M311.6,91c-23.9,0-59.2-5.6-102.8-20.5l7.5-6.8c43.1,14.7,72.4,19.3,95.3,19.3c28.8,0,43.6-7.4,49.6-11.6
			c1.9-1.3,2.9-2.4,3.1-2.6l0.1-0.1l0.1-0.1c0,0,0,0,0,0c0,0,0,0,0,0c0,0,0.1-0.1,0.1-0.2c0.1-0.2,0.3-0.4,0.6-0.8
			c0.5-0.7,1.2-1.7,1.9-3c1.4-2.5,2.7-6.1,2.7-9.9c0-4.1-0.5-8.7-5.2-13.8c-4.7-5.1-15.4-15.5-29.3-20.6l4.3-1.1
			c14.6,5.4,24.1,11.5,30,17.9c5.9,6.4,8.1,11.7,8.1,17.6c-0.1,10.3-5.8,17.4-7,18.9c-0.4,0.6-0.9,1-1.6,1.7
			c-0.7,0.7-1.7,1.5-2.9,2.3c-2.4,1.7-5.8,3.8-10.5,5.7C346.2,87.4,332,91,311.6,91L311.6,91z"/>
		<path class="st0" d="M12.7,57.8c-6.4-7-10-14.9-10-22.9c0-9.5,5.3-18.5,15.1-24.6c9.8-6.2,24-10,43-10.2c1.1,0,2.2,0,3.2,0
			c67.1,0,95.8,34.9,96.2,35.4l-3.3,0.8c0,0,0,0,0,0c0,0-0.1-0.1-0.2-0.2c-0.2-0.2-0.5-0.5-0.9-0.9c-0.8-0.8-2.2-1.9-3.9-3.2
			c-3.6-2.7-9.8-6.3-17.4-10c-15-7.3-38.1-13.9-70.5-13.9c-1,0-2.1,0-3.1,0c-18,0.3-30.9,3.9-38.9,9c-8.1,5.2-11.4,11.4-11.4,17.9
			c0,5.5,2.5,11.6,7.9,17.6c5.4,5.9,17,11.9,28,16.1l-6,6.9C28.4,70.9,19.1,64.8,12.7,57.8"/>
		<polygon class="st0" points="61,81.6 50.8,65 23.8,76.5 		"/>
	</g>
</g>
</svg>
